<mxfile host="app.diagrams.net" modified="2023-11-21T12:02:20.061Z" agent="Mozilla/5.0 (X11; Ubuntu; Linux x86_64; rv:109.0) Gecko/20100101 Firefox/119.0" etag="-EiQhuJrdDe5jPH8mw1t" version="21.8.2" type="github">
  <diagram name="Página-1" id="SIVcvmp13JAFcM8ecQ2-">
    <mxGraphModel dx="1364" dy="795" grid="1" gridSize="10" guides="1" tooltips="1" connect="1" arrows="1" fold="1" page="1" pageScale="1" pageWidth="827" pageHeight="1169" math="0" shadow="0">
      <root>
        <mxCell id="0" />
        <mxCell id="1" parent="0" />
        <mxCell id="QBpLbKEszk_QBCVuTLHS-1" value="Acidente" style="swimlane;fontStyle=0;childLayout=stackLayout;horizontal=1;startSize=26;fillColor=none;horizontalStack=0;resizeParent=1;resizeParentMax=0;resizeLast=0;collapsible=1;marginBottom=0;whiteSpace=wrap;html=1;" vertex="1" parent="1">
          <mxGeometry x="46" y="343" width="140" height="78" as="geometry" />
        </mxCell>
        <mxCell id="QBpLbKEszk_QBCVuTLHS-2" value="crashdate: string" style="text;strokeColor=none;fillColor=none;align=left;verticalAlign=top;spacingLeft=4;spacingRight=4;overflow=hidden;rotatable=0;points=[[0,0.5],[1,0.5]];portConstraint=eastwest;whiteSpace=wrap;html=1;" vertex="1" parent="QBpLbKEszk_QBCVuTLHS-1">
          <mxGeometry y="26" width="140" height="26" as="geometry" />
        </mxCell>
        <mxCell id="QBpLbKEszk_QBCVuTLHS-3" value="crashtime: string" style="text;strokeColor=none;fillColor=none;align=left;verticalAlign=top;spacingLeft=4;spacingRight=4;overflow=hidden;rotatable=0;points=[[0,0.5],[1,0.5]];portConstraint=eastwest;whiteSpace=wrap;html=1;" vertex="1" parent="QBpLbKEszk_QBCVuTLHS-1">
          <mxGeometry y="52" width="140" height="26" as="geometry" />
        </mxCell>
        <mxCell id="QBpLbKEszk_QBCVuTLHS-47" style="edgeStyle=orthogonalEdgeStyle;rounded=0;orthogonalLoop=1;jettySize=auto;html=1;endArrow=none;endFill=0;" edge="1" parent="1" source="QBpLbKEszk_QBCVuTLHS-6" target="QBpLbKEszk_QBCVuTLHS-10">
          <mxGeometry relative="1" as="geometry" />
        </mxCell>
        <mxCell id="QBpLbKEszk_QBCVuTLHS-6" value="&lt;div&gt;Veículo&lt;/div&gt;" style="swimlane;fontStyle=0;childLayout=stackLayout;horizontal=1;startSize=26;fillColor=none;horizontalStack=0;resizeParent=1;resizeParentMax=0;resizeLast=0;collapsible=1;marginBottom=0;whiteSpace=wrap;html=1;" vertex="1" parent="1">
          <mxGeometry x="326" y="138" width="140" height="52" as="geometry" />
        </mxCell>
        <mxCell id="QBpLbKEszk_QBCVuTLHS-7" value="marca: string" style="text;strokeColor=none;fillColor=none;align=left;verticalAlign=top;spacingLeft=4;spacingRight=4;overflow=hidden;rotatable=0;points=[[0,0.5],[1,0.5]];portConstraint=eastwest;whiteSpace=wrap;html=1;" vertex="1" parent="QBpLbKEszk_QBCVuTLHS-6">
          <mxGeometry y="26" width="140" height="26" as="geometry" />
        </mxCell>
        <mxCell id="QBpLbKEszk_QBCVuTLHS-37" style="edgeStyle=orthogonalEdgeStyle;rounded=0;orthogonalLoop=1;jettySize=auto;html=1;endArrow=none;endFill=0;entryX=0;entryY=0.077;entryDx=0;entryDy=0;entryPerimeter=0;" edge="1" parent="1" source="QBpLbKEszk_QBCVuTLHS-10" target="QBpLbKEszk_QBCVuTLHS-40">
          <mxGeometry relative="1" as="geometry">
            <mxPoint x="536" y="382" as="targetPoint" />
            <Array as="points">
              <mxPoint x="626" y="382" />
            </Array>
          </mxGeometry>
        </mxCell>
        <mxCell id="QBpLbKEszk_QBCVuTLHS-10" value="Relatório" style="swimlane;fontStyle=0;childLayout=stackLayout;horizontal=1;startSize=26;fillColor=none;horizontalStack=0;resizeParent=1;resizeParentMax=0;resizeLast=0;collapsible=1;marginBottom=0;whiteSpace=wrap;html=1;" vertex="1" parent="1">
          <mxGeometry x="326" y="330" width="140" height="104" as="geometry" />
        </mxCell>
        <mxCell id="QBpLbKEszk_QBCVuTLHS-11" value="&lt;div&gt;mortes: int&lt;/div&gt;" style="text;strokeColor=none;fillColor=none;align=left;verticalAlign=top;spacingLeft=4;spacingRight=4;overflow=hidden;rotatable=0;points=[[0,0.5],[1,0.5]];portConstraint=eastwest;whiteSpace=wrap;html=1;" vertex="1" parent="QBpLbKEszk_QBCVuTLHS-10">
          <mxGeometry y="26" width="140" height="26" as="geometry" />
        </mxCell>
        <mxCell id="QBpLbKEszk_QBCVuTLHS-12" value="ferimentos: int" style="text;strokeColor=none;fillColor=none;align=left;verticalAlign=top;spacingLeft=4;spacingRight=4;overflow=hidden;rotatable=0;points=[[0,0.5],[1,0.5]];portConstraint=eastwest;whiteSpace=wrap;html=1;" vertex="1" parent="QBpLbKEszk_QBCVuTLHS-10">
          <mxGeometry y="52" width="140" height="26" as="geometry" />
        </mxCell>
        <mxCell id="QBpLbKEszk_QBCVuTLHS-13" value="&lt;div&gt;idcolisao: int&lt;/div&gt;" style="text;strokeColor=none;fillColor=none;align=left;verticalAlign=top;spacingLeft=4;spacingRight=4;overflow=hidden;rotatable=0;points=[[0,0.5],[1,0.5]];portConstraint=eastwest;whiteSpace=wrap;html=1;" vertex="1" parent="QBpLbKEszk_QBCVuTLHS-10">
          <mxGeometry y="78" width="140" height="26" as="geometry" />
        </mxCell>
        <mxCell id="QBpLbKEszk_QBCVuTLHS-15" value="*" style="text;strokeColor=none;align=center;fillColor=none;html=1;verticalAlign=middle;whiteSpace=wrap;rounded=0;fontSize=24;" vertex="1" parent="1">
          <mxGeometry x="384" y="190" width="60" height="30" as="geometry" />
        </mxCell>
        <mxCell id="QBpLbKEszk_QBCVuTLHS-16" value="*" style="text;strokeColor=none;align=center;fillColor=none;html=1;verticalAlign=middle;whiteSpace=wrap;rounded=0;fontSize=24;" vertex="1" parent="1">
          <mxGeometry x="384" y="313" width="60" height="30" as="geometry" />
        </mxCell>
        <mxCell id="QBpLbKEszk_QBCVuTLHS-18" style="edgeStyle=orthogonalEdgeStyle;rounded=0;orthogonalLoop=1;jettySize=auto;html=1;entryX=0.014;entryY=0;entryDx=0;entryDy=0;entryPerimeter=0;endArrow=none;endFill=0;" edge="1" parent="1" source="QBpLbKEszk_QBCVuTLHS-1" target="QBpLbKEszk_QBCVuTLHS-12">
          <mxGeometry relative="1" as="geometry">
            <Array as="points">
              <mxPoint x="210" y="382" />
              <mxPoint x="210" y="382" />
            </Array>
          </mxGeometry>
        </mxCell>
        <mxCell id="QBpLbKEszk_QBCVuTLHS-20" value="1" style="text;strokeColor=none;align=center;fillColor=none;html=1;verticalAlign=middle;whiteSpace=wrap;rounded=0;" vertex="1" parent="1">
          <mxGeometry x="180" y="360" width="60" height="30" as="geometry" />
        </mxCell>
        <mxCell id="QBpLbKEszk_QBCVuTLHS-21" value="1" style="text;strokeColor=none;align=center;fillColor=none;html=1;verticalAlign=middle;whiteSpace=wrap;rounded=0;" vertex="1" parent="1">
          <mxGeometry x="290" y="360" width="60" height="30" as="geometry" />
        </mxCell>
        <mxCell id="QBpLbKEszk_QBCVuTLHS-46" style="edgeStyle=orthogonalEdgeStyle;rounded=0;orthogonalLoop=1;jettySize=auto;html=1;entryX=0.5;entryY=1;entryDx=0;entryDy=0;endArrow=none;endFill=0;" edge="1" parent="1" source="QBpLbKEszk_QBCVuTLHS-22" target="QBpLbKEszk_QBCVuTLHS-10">
          <mxGeometry relative="1" as="geometry" />
        </mxCell>
        <mxCell id="QBpLbKEszk_QBCVuTLHS-22" value="Local" style="swimlane;fontStyle=0;childLayout=stackLayout;horizontal=1;startSize=26;fillColor=none;horizontalStack=0;resizeParent=1;resizeParentMax=0;resizeLast=0;collapsible=1;marginBottom=0;whiteSpace=wrap;html=1;" vertex="1" parent="1">
          <mxGeometry x="326" y="600" width="140" height="234" as="geometry" />
        </mxCell>
        <mxCell id="QBpLbKEszk_QBCVuTLHS-23" value="&lt;div&gt;bairro: string&lt;/div&gt;" style="text;strokeColor=none;fillColor=none;align=left;verticalAlign=top;spacingLeft=4;spacingRight=4;overflow=hidden;rotatable=0;points=[[0,0.5],[1,0.5]];portConstraint=eastwest;whiteSpace=wrap;html=1;" vertex="1" parent="QBpLbKEszk_QBCVuTLHS-22">
          <mxGeometry y="26" width="140" height="26" as="geometry" />
        </mxCell>
        <mxCell id="QBpLbKEszk_QBCVuTLHS-24" value="&lt;div&gt;zip: int&lt;/div&gt;&lt;br&gt;" style="text;strokeColor=none;fillColor=none;align=left;verticalAlign=top;spacingLeft=4;spacingRight=4;overflow=hidden;rotatable=0;points=[[0,0.5],[1,0.5]];portConstraint=eastwest;whiteSpace=wrap;html=1;" vertex="1" parent="QBpLbKEszk_QBCVuTLHS-22">
          <mxGeometry y="52" width="140" height="26" as="geometry" />
        </mxCell>
        <mxCell id="QBpLbKEszk_QBCVuTLHS-25" value="latitude: float" style="text;strokeColor=none;fillColor=none;align=left;verticalAlign=top;spacingLeft=4;spacingRight=4;overflow=hidden;rotatable=0;points=[[0,0.5],[1,0.5]];portConstraint=eastwest;whiteSpace=wrap;html=1;" vertex="1" parent="QBpLbKEszk_QBCVuTLHS-22">
          <mxGeometry y="78" width="140" height="26" as="geometry" />
        </mxCell>
        <mxCell id="QBpLbKEszk_QBCVuTLHS-35" value="longitude: float" style="text;strokeColor=none;fillColor=none;align=left;verticalAlign=top;spacingLeft=4;spacingRight=4;overflow=hidden;rotatable=0;points=[[0,0.5],[1,0.5]];portConstraint=eastwest;whiteSpace=wrap;html=1;" vertex="1" parent="QBpLbKEszk_QBCVuTLHS-22">
          <mxGeometry y="104" width="140" height="26" as="geometry" />
        </mxCell>
        <mxCell id="QBpLbKEszk_QBCVuTLHS-36" value="location: " style="text;strokeColor=none;fillColor=none;align=left;verticalAlign=top;spacingLeft=4;spacingRight=4;overflow=hidden;rotatable=0;points=[[0,0.5],[1,0.5]];portConstraint=eastwest;whiteSpace=wrap;html=1;" vertex="1" parent="QBpLbKEszk_QBCVuTLHS-22">
          <mxGeometry y="130" width="140" height="26" as="geometry" />
        </mxCell>
        <mxCell id="QBpLbKEszk_QBCVuTLHS-49" value="&lt;div&gt;rua: string&lt;/div&gt;&lt;div&gt;&lt;br&gt;&lt;/div&gt;" style="text;strokeColor=none;fillColor=none;align=left;verticalAlign=top;spacingLeft=4;spacingRight=4;overflow=hidden;rotatable=0;points=[[0,0.5],[1,0.5]];portConstraint=eastwest;whiteSpace=wrap;html=1;" vertex="1" parent="QBpLbKEszk_QBCVuTLHS-22">
          <mxGeometry y="156" width="140" height="26" as="geometry" />
        </mxCell>
        <mxCell id="QBpLbKEszk_QBCVuTLHS-50" value="perpendicular: string" style="text;strokeColor=none;fillColor=none;align=left;verticalAlign=top;spacingLeft=4;spacingRight=4;overflow=hidden;rotatable=0;points=[[0,0.5],[1,0.5]];portConstraint=eastwest;whiteSpace=wrap;html=1;" vertex="1" parent="QBpLbKEszk_QBCVuTLHS-22">
          <mxGeometry y="182" width="140" height="26" as="geometry" />
        </mxCell>
        <mxCell id="QBpLbKEszk_QBCVuTLHS-51" value="offstreet: string" style="text;strokeColor=none;fillColor=none;align=left;verticalAlign=top;spacingLeft=4;spacingRight=4;overflow=hidden;rotatable=0;points=[[0,0.5],[1,0.5]];portConstraint=eastwest;whiteSpace=wrap;html=1;" vertex="1" parent="QBpLbKEszk_QBCVuTLHS-22">
          <mxGeometry y="208" width="140" height="26" as="geometry" />
        </mxCell>
        <mxCell id="QBpLbKEszk_QBCVuTLHS-33" value="*" style="text;strokeColor=none;align=center;fillColor=none;html=1;verticalAlign=middle;whiteSpace=wrap;rounded=0;fontSize=24;" vertex="1" parent="1">
          <mxGeometry x="400" y="440" width="60" height="30" as="geometry" />
        </mxCell>
        <mxCell id="QBpLbKEszk_QBCVuTLHS-38" value="Fatalidades" style="swimlane;fontStyle=0;childLayout=stackLayout;horizontal=1;startSize=26;fillColor=none;horizontalStack=0;resizeParent=1;resizeParentMax=0;resizeLast=0;collapsible=1;marginBottom=0;whiteSpace=wrap;html=1;" vertex="1" parent="1">
          <mxGeometry x="626" y="330" width="210" height="104" as="geometry" />
        </mxCell>
        <mxCell id="QBpLbKEszk_QBCVuTLHS-39" value="tipo: (pedestres, ciclistas, motoristas)" style="text;strokeColor=none;fillColor=none;align=left;verticalAlign=top;spacingLeft=4;spacingRight=4;overflow=hidden;rotatable=0;points=[[0,0.5],[1,0.5]];portConstraint=eastwest;whiteSpace=wrap;html=1;" vertex="1" parent="QBpLbKEszk_QBCVuTLHS-38">
          <mxGeometry y="26" width="210" height="26" as="geometry" />
        </mxCell>
        <mxCell id="QBpLbKEszk_QBCVuTLHS-40" value="&lt;div&gt;mortes: int&lt;/div&gt;&lt;div&gt;&lt;br&gt;&lt;/div&gt;" style="text;strokeColor=none;fillColor=none;align=left;verticalAlign=top;spacingLeft=4;spacingRight=4;overflow=hidden;rotatable=0;points=[[0,0.5],[1,0.5]];portConstraint=eastwest;whiteSpace=wrap;html=1;" vertex="1" parent="QBpLbKEszk_QBCVuTLHS-38">
          <mxGeometry y="52" width="210" height="26" as="geometry" />
        </mxCell>
        <mxCell id="QBpLbKEszk_QBCVuTLHS-41" value="feridos: int" style="text;strokeColor=none;fillColor=none;align=left;verticalAlign=top;spacingLeft=4;spacingRight=4;overflow=hidden;rotatable=0;points=[[0,0.5],[1,0.5]];portConstraint=eastwest;whiteSpace=wrap;html=1;" vertex="1" parent="QBpLbKEszk_QBCVuTLHS-38">
          <mxGeometry y="78" width="210" height="26" as="geometry" />
        </mxCell>
        <mxCell id="QBpLbKEszk_QBCVuTLHS-42" value="1" style="text;strokeColor=none;align=center;fillColor=none;html=1;verticalAlign=middle;whiteSpace=wrap;rounded=0;" vertex="1" parent="1">
          <mxGeometry x="444" y="360" width="60" height="30" as="geometry" />
        </mxCell>
        <mxCell id="QBpLbKEszk_QBCVuTLHS-44" value="0..3" style="text;strokeColor=none;align=center;fillColor=none;html=1;verticalAlign=middle;whiteSpace=wrap;rounded=0;" vertex="1" parent="1">
          <mxGeometry x="556" y="360" width="60" height="30" as="geometry" />
        </mxCell>
        <mxCell id="QBpLbKEszk_QBCVuTLHS-48" value="1" style="text;strokeColor=none;align=center;fillColor=none;html=1;verticalAlign=middle;whiteSpace=wrap;rounded=0;" vertex="1" parent="1">
          <mxGeometry x="400" y="570" width="60" height="30" as="geometry" />
        </mxCell>
      </root>
    </mxGraphModel>
  </diagram>
</mxfile>
